<svg width="32" height="32" viewBox="0 0 32 32" fill="none" xmlns="http://www.w3.org/2000/svg">
<g clip-path="url(#clip0_161_2)">
<path d="M16 2.66667C23.352 2.66667 29.3333 8.648 29.3333 16C29.3333 23.352 23.352 29.3333 16 29.3333C8.648 29.3333 2.66667 23.352 2.66667 16C2.66667 8.648 8.648 2.66667 16 2.66667ZM16 0C7.164 0 0 7.164 0 16C0 24.836 7.164 32 16 32C24.836 32 32 24.836 32 16C32 7.164 24.836 0 16 0ZM22.6667 18.4053C22.1427 19.9253 20.5747 22.6173 18.9573 22.6453C17.8853 22.6667 17.5413 22.0107 16.3173 22.0107C15.0933 22.0107 14.708 22.6253 13.6947 22.6667C11.98 22.7307 9.33333 18.78 9.33333 15.336C9.33333 12.1707 11.5387 10.6027 13.4653 10.5733C14.4973 10.5547 15.4747 11.2693 16.1053 11.2693C16.7387 11.2693 17.924 10.4093 19.1693 10.536C19.6907 10.5573 21.1533 10.7467 22.096 12.1213C19.5987 13.7493 19.988 17.1533 22.6667 18.4053ZM19.1853 6.66667C17.3013 6.744 15.764 8.72 15.98 10.3533C17.7187 10.4893 19.3907 8.53733 19.1853 6.66667Z" fill="black"/>
</g>
<defs>
<clipPath id="clip0_161_2">
<rect width="32" height="32" fill="white"/>
</clipPath>
</defs>
</svg>
