<svg xmlns="http://www.w3.org/2000/svg" xmlns:xlink="http://www.w3.org/1999/xlink"><symbol id="export"><path d="m18.013 1.394-1.97 12.84-2.736-2.77c-3.906.836-7.61 3.423-11.058 7.849l-.298.387-.015-.104c-.127-1.04.02-2.295.352-3.68l.087-.35c.787-3.055 2.43-6.674 5.32-9.524l-2.892-3.17 13.21-1.478z" fill-rule="nonzero" stroke="#FFF" stroke-width="2.258" fill="none"/></symbol><symbol id="icon-close"><path d="M15.74.26a.782.782 0 0 0-1.106 0L8 6.894 1.366.26A.782.782 0 1 0 .26 1.366L6.894 8 .26 14.634a.782.782 0 1 0 1.106 1.106L8 9.106l6.634 6.634a.782.782 0 1 0 1.106-1.106L9.106 8l6.634-6.634a.782.782 0 0 0 0-1.106Z"/></symbol><symbol id="noAds"><path d="M1.667 13.358c.644 0 1.166.523 1.166 1.167v2.414c0 1.23.998 2.228 2.228 2.228h2.566a1.166 1.166 0 1 1 0 2.333H5.06A4.56 4.56 0 0 1 .5 16.94v-2.415c0-.644.522-1.167 1.167-1.167zm18.666-.046c.645 0 1.167.522 1.167 1.166v2.461a4.56 4.56 0 0 1-4.56 4.561h-2.448a1.166 1.166 0 0 1 0-2.333h2.447c1.23 0 2.228-.998 2.228-2.228v-2.46c0-.645.522-1.167 1.166-1.167zm-3.394 1.082a.849.849 0 1 1 0 1.697H5.061a.849.849 0 1 1 0-1.697h11.878zm0-4.242a.849.849 0 1 1 0 1.696H5.061a.849.849 0 1 1 0-1.696h11.878zm0-9.652A4.56 4.56 0 0 1 21.5 5.06v3.448a1.166 1.166 0 0 1-2.333 0V5.06c0-1.23-.998-2.228-2.228-2.228h-2.536a1.166 1.166 0 1 1 0-2.333h2.536zM7.601.5a1.167 1.167 0 0 1 0 2.333H5.06c-1.23 0-2.228.998-2.228 2.228v2.613a1.166 1.166 0 1 1-2.332 0V5.061A4.56 4.56 0 0 1 5.06.5H7.6zm9.338 5.41a.848.848 0 1 1 0 1.696H5.061a.849.849 0 1 1 0-1.697h11.878z" fill="#FFF" fill-rule="nonzero"/></symbol><symbol id="unlimited-docs"><path d="M7.166 1.425c2.148 0 4.093 1.944 5.834 5.833-1.74 3.89-3.686 5.834-5.834 5.834a5.834 5.834 0 0 1 0-11.667zm11.667 0a5.833 5.833 0 1 1 0 11.667c-2.148 0-4.092-1.945-5.833-5.834 1.74-3.89 3.685-5.833 5.833-5.833z" fill-rule="nonzero" stroke="#FFF" stroke-width="2.258" fill="none"/></symbol></svg>